<?xml version="1.0" encoding="utf-8"?>
<COLLADA xmlns="http://www.collada.org/2005/11/COLLADASchema" version="1.4.1">
  <asset>
    <contributor>
      <author>Blender User</author>
      <authoring_tool>Blender 2.76.0 commit date:2015-11-03, commit time:10:56, hash:f337fea</authoring_tool>
    </contributor>
    <created>2015-11-16T10:46:47</created>
    <modified>2015-11-16T10:46:47</modified>
    <unit name="meter" meter="1"/>
    <up_axis>Z_UP</up_axis>
  </asset>
  <library_images/>
  <library_geometries>
    <geometry id="Cube_001-mesh" name="Cube.001">
      <mesh>
        <source id="Cube_001-mesh-positions">
          <float_array id="Cube_001-mesh-positions-array" count="135">-1 -1 -1 -1 -1 1.026534 -1 1 -1 -1 1 1.026534 1 -1 -1 1 -1 1.026534 1 1 -1 1 1 1.026534 -1 0 1.026534 0 1 1.026534 1 0 1.026534 0 -1 1.026534 -0.01226317 0 1.255927 -1 0.5 1.026534 0.2664524 1 1.026534 1 -0.5 1.026534 -0.5 -1 1.026534 -1 -0.5 1.026534 -0.5 1 1.026534 1 0.5 1.026534 0.2664524 -1 1.026534 -0.924345 0 1.026534 0.2664524 0 1.026534 0 -0.3818184 1.026534 0 0.3818184 1.026534 0.2664524 0.3818184 1.026534 0.2664524 -0.3818184 1.026534 -0.924345 -0.3818184 1.026534 -0.924345 0.3818184 1.026534 0.2377368 0 1.255927 -0.01226317 0.3486152 1.255927 -0.9311035 0 1.255927 -0.01226317 -0.3486152 1.255927 0.25 0.3818184 1.026534 0.2664524 0.1909092 1.026534 0.25 -0.3818184 1.026534 0.2664524 -0.1909092 1.026534 -0.25 -0.3818184 1.026534 -0.924345 -0.25 1.026534 -0.25 0.3818184 1.026534 -0.924345 0.25 1.026534 -0.9311035 0.3486152 1.255927 -0.9311035 -0.3486152 1.255927 0.2377368 0.3486152 1.255927 0.2377368 -0.3486152 1.255927</float_array>
          <technique_common>
            <accessor source="#Cube_001-mesh-positions-array" count="45" stride="3">
              <param name="X" type="float"/>
              <param name="Y" type="float"/>
              <param name="Z" type="float"/>
            </accessor>
          </technique_common>
        </source>
        <source id="Cube_001-mesh-normals">
          <float_array id="Cube_001-mesh-normals-array" count="75">-1 0 0 0 1 0 1 0 0 0 -1 0 0 0 -1 0 0 1 0 0.9896864 0.1432507 0 0 1 -1.62511e-7 0 1 -0.9995663 0 -0.02944976 0 0.9896865 0.1432504 -0.9995663 0 -0.02944976 0 0.9896865 0.1432507 -0.9995663 0 -0.02944976 0 -0.9896865 0.1432507 0.9922558 0 0.1242113 0 -0.9896865 0.1432507 0.9941645 -0.08567643 0.06554841 0.9922558 0 0.1242113 2.12811e-7 0 1 1.49419e-6 0 1 0 0.9896865 0.1432507 0 -0.9896865 0.1432505 0.9941645 0.08567643 0.06554841 0 -0.9896864 0.1432507</float_array>
          <technique_common>
            <accessor source="#Cube_001-mesh-normals-array" count="25" stride="3">
              <param name="X" type="float"/>
              <param name="Y" type="float"/>
              <param name="Z" type="float"/>
            </accessor>
          </technique_common>
        </source>
        <vertices id="Cube_001-mesh-vertices">
          <input semantic="POSITION" source="#Cube_001-mesh-positions"/>
        </vertices>
        <polylist count="86">
          <input semantic="VERTEX" source="#Cube_001-mesh-vertices" offset="0"/>
          <input semantic="NORMAL" source="#Cube_001-mesh-normals" offset="1"/>
          <vcount>3 3 3 3 3 3 3 3 3 3 3 3 3 3 3 3 3 3 3 3 3 3 3 3 3 3 3 3 3 3 3 3 3 3 3 3 3 3 3 3 3 3 3 3 3 3 3 3 3 3 3 3 3 3 3 3 3 3 3 3 3 3 3 3 3 3 3 3 3 3 3 3 3 3 3 3 3 3 3 3 3 3 3 3 3 3 </vcount>
          <p>8 0 13 0 2 0 9 1 14 1 6 1 10 2 15 2 4 2 11 3 16 3 0 3 2 4 6 4 4 4 28 5 18 5 3 5 38 5 8 5 17 5 29 5 12 5 32 5 9 5 24 5 33 5 43 6 33 6 24 6 19 7 34 7 10 7 19 5 7 5 14 5 35 5 23 5 11 5 15 5 26 5 20 5 10 8 36 8 15 8 27 5 17 5 1 5 37 5 27 5 16 5 31 9 21 9 38 9 40 5 13 5 8 5 41 10 39 10 28 10 18 5 28 5 39 5 31 11 41 11 40 11 12 5 30 5 41 5 30 12 24 12 39 12 42 13 38 13 27 13 32 14 42 14 37 14 12 5 31 5 42 5 43 5 30 5 12 5 34 15 43 15 29 15 34 5 25 5 33 5 44 16 32 16 23 16 36 17 44 17 35 17 36 18 22 18 29 18 0 0 1 0 17 0 17 0 8 0 0 0 13 0 3 0 2 0 2 0 0 0 8 0 2 1 3 1 18 1 18 1 9 1 2 1 14 1 7 1 6 1 6 1 2 1 9 1 6 2 7 2 19 2 19 2 10 2 6 2 15 2 5 2 4 2 4 2 6 2 10 2 4 3 5 3 20 3 20 3 11 3 4 3 16 3 1 3 0 3 0 3 4 3 11 3 0 4 2 4 4 4 13 5 28 5 3 5 17 5 27 5 38 5 38 5 21 5 8 5 44 5 29 5 32 5 33 5 25 5 14 5 14 5 9 5 33 5 30 12 43 12 24 12 22 5 10 5 34 5 19 19 25 19 34 19 25 5 19 5 14 5 11 5 20 5 35 5 26 5 35 5 20 5 5 5 15 5 20 5 26 5 15 5 36 5 10 5 22 5 36 5 16 5 27 5 1 5 16 5 11 5 37 5 23 5 37 5 11 5 42 11 31 11 38 11 8 5 21 5 40 5 40 20 28 20 13 20 40 13 41 13 28 13 39 5 24 5 9 5 9 5 18 5 39 5 21 9 31 9 40 9 31 5 12 5 41 5 41 21 30 21 39 21 37 22 42 22 27 22 23 16 32 16 37 16 32 5 12 5 42 5 29 5 43 5 12 5 22 18 34 18 29 18 43 23 34 23 33 23 35 24 44 24 23 24 26 5 36 5 35 5 44 15 36 15 29 15</p>
        </polylist>
      </mesh>
    </geometry>
  </library_geometries>
  <library_controllers/>
  <library_visual_scenes>
    <visual_scene id="Scene" name="Scene">
      <node id="Cube" name="Cube" type="NODE">
        <matrix sid="transform">0.0375 0 0 -0.0309988 0 0.0495 0 -3.07493e-8 0 0 0.2672625 0.1956961 0 0 0 1</matrix>
        <instance_geometry url="#Cube_001-mesh" name="Cube"/>
      </node>
    </visual_scene>
  </library_visual_scenes>
  <scene>
    <instance_visual_scene url="#Scene"/>
  </scene>
</COLLADA>