<?xml version="1.0" encoding="UTF-8"?>
<COLLADA xmlns="http://www.collada.org/2005/11/COLLADASchema" version="1.4.1">
    <asset>
        <contributor>
            <author>VCGLab</author>
            <authoring_tool>VCGLib | MeshLab</authoring_tool>
        </contributor>
        <up_axis>Y_UP</up_axis>
        <created>Mo. Sep 10 15:58:16 2018</created>
        <modified>Mo. Sep 10 15:58:16 2018</modified>
    </asset>
    <library_images/>
    <library_materials/>
    <library_effects/>
    <library_geometries>
        <geometry id="shape0-lib" name="shape0">
            <mesh>
                <source id="shape0-lib-positions" name="position">
                    <float_array id="shape0-lib-positions-array" count="1242">0.00149518 0.00906956 -0.00450981 0.00149989 -0.00727624 0.00900817 0.00149989 0.0194999 0.0115 0.00149989 -0.0065549 -0.00705004 0.00149989 -0.00769019 -0.00924706 0.00149989 -0.00779259 0.00638974 0.00147337 -0.00918514 0.00816321 0.00148135 0.00916994 0.00734037 0.00149989 0.00735378 0.00912225 0.00149989 0.00654095 0.0067265 0.00149989 0.00666857 -0.00661886 0.00149989 0.00729221 -0.00913519 0.00149989 0.00921166 -0.0072307 0.00149989 0.0115301 -0.0039168 0.00149989 0.0115161 0.00385362 0.00149989 0.0158389 -0.00387859 0.00149989 0.0159882 0.00391495 0.00149989 -0.00938362 0.00277507 0.00149989 -0.0127002 0.00399846 0.00149989 -0.0115012 0.00310969 0.00149989 -0.0159724 -0.00305259 0.00149989 -0.011661 -0.00387859 0.00149989 -0.0160785 -0.00784266 0.00149989 -0.0194999 -0.0115 0.00149989 -0.0180204 -0.00938493 0.00149989 0.0190515 -0.00772363 0.00149989 0.016743 -0.00918853 0.00149989 0.00346416 0.00931954 0.00149989 0.00471342 0.00852728 0.00149989 0.00232095 0.00855642 0.000737099 0.00432897 0.0068925 0.00149989 -0.00711459 0.00254637 0.00149989 -0.00680083 0.00422025 0.00149989 -0.00349992 -0.00927079 0.00149989 -0.00137389 -0.00731957 0.00149989 -0.00210327 -0.00829357 0.00149989 -0.00437915 -0.00892228 0.00149989 0.00804573 -0.00200856 0.00149989 0.00671268 -0.00355512 0.00149989 0.00928455 0.00358945 0.00149989 0.00696725 0.00282311 0.00149989 -0.00479376 -0.00695872 8.69901e-06 -0.00648916 -0.00402528 0.00149989 -0.00681639 -0.00539845 -6.9533e-11 -0.00491977 0.0065105 2.90009e-06 -0.00448555 0.00567919 0.00149989 -0.00644791 0.00671822 0.00149989 -0.00508821 0.00464195 6.49831e-06 0.00452781 0.00607854 0.00149989 0.00753599 0.00446039 0.00149989 0.00605953 0.00451165 0.00149989 0.00540376 -0.00439227 0.00149989 0.00469887 -0.00678486 0.00149989 0.00209665 0.00366723 0.00149989 -0.00217622 0.00356036 0.00149989 -0.00409603 0.000354389 0.00149989 -0.000865682 -0.00397962 0.00149989 -0.00316143 -0.00256365 0.00149959 0.0040915 0.000184477 0.00149989 -0.0196955 -0.0110089 0.00149989 -0.0179444 0.00931871 0.00149989 -0.0165302 0.00882268 0.00149989 -0.016 0.00249994 0.00149989 -0.0187884 0.00762641 0.00149989 -0.0194999 0.0115 0.00149989 -0.0165778 0.00678968 0.00149989 0.018314 0.00685537 0.00149989 0.0163839 0.00901079 0.00149989 0.0185707 0.0087713 0.00149989 0.0196999 0.011009 0.00149989 0.000320113 0.00916129 0.00149989 -0.00103468 0.00737977 0.00149989 -0.00408667 0.00908637 0.00149989 -0.00231945 0.00772786 0.00149989 -0.00840181 0.00470656 0.00149989 0.00900638 -0.0005258 0.00149989 0.00781 0.00121087 0.00149989 0.00720251 -0.000808293 0.00149989 0.00739908 -0.00468719 0.00149989 -0.00754321 0.000971241 0.00149989 -0.00699353 -0.000525799 0.00149989 -0.00904733 0.000438563 0.00149989 -0.00844967 -0.000955503 0.00149989 -0.00463849 -0.00580442 1.20012e-06 -0.00891829 -0.00436646 0.00149989 -0.00884539 -0.00279611 0.00149989 0.0205 -0.0109999 0.00149989 0.0166034 0.00709796 0.00149989 0.0194999 -0.0115 0.00149989 -0.0186695 -0.00738764 0.00149989 0.00379479 -0.00957149 0.000245599 0.00264043 -0.00714773 0.00149989 7.0055e-05 -0.00902557 0.00149989 0.00120181 -0.00775874 0.00149989 -0.0147998 -0.00399846 0.00149989 -0.00840926 -0.00661194 0.005 -0.0175 -0.0115 0.00499999 0.0175 -0.0115 0.00381255 0.019466 -0.0115 0.00340927 -0.0194287 -0.0115 0.00149989 0.0194999 -0.0129999 1.84995e-05 0.0194999 -0.0117346 0.000818999 0.0194999 -0.0128364 0.0005072 0.0194999 -0.0126299 0.000286499 0.0194999 -0.0123817 0.000102399 0.0194999 -0.012056 0.00112843 0.0194999 -0.0129576 4.19985e-05 0.0208701 -0.0109999 0.000228599 0.0213038 -0.0109999 0.0006359 0.0217403 -0.0109999 0.00128579 0.0219996 -0.0109999 0.03 0.0205 -0.0109999 0.03 0.022 -0.0109999 0.0312322 0.0205 0.0109863 0.0306687 0.022 0.0109985 0.0292706 0.0205 -0.00706982 0.031069 0.0205 -0.00768953 0.0297768 0.0205 -0.00918543 0.0324464 0.0205014 -0.0103241 0.0255472 0.0205 0.00526959 0.0236896 0.0205 0.00487697 0.0299832 0.0205 0.00672835 0.00149989 0.0205 0.0109999 0.0292397 0.0205 0.00869197 0.0306624 0.0205 0.00895041 0.032501 0.0205 0.0094288 0.00600129 0.0205 -0.00496888 0.00961447 0.0205 -0.00499451 0.0110931 0.0205 0.00805163 0.0060426 0.0205 0.00498492 0.00999886 0.0205 0.00496858 0.0179998 0.0205 -0.00438428 0.0208396 0.0205 0.000485405 0.0140018 0.0205 0.00498372 0.0179255 0.0205 0.00497282 0.0140037 0.0205 -0.00499004 0.0285327 0.0205 0.00382584 0.026207 0.0205 -0.0014916 0.0261573 0.0205 0.0013938 0.0312154 0.0205 -0.00410729 0.0233957 0.0205 -0.00525767 0.0280954 0.0205 -0.003564 0.0324986 0.0205 -0.00568759 0.0231969 0.0205 0.000135983 0.0220701 0.0205 -0.00102562 0.0254706 0.0205 -0.00510812 0.0236937 0.0205 -0.00658828 0.0121093 0.0205 -0.00730288 0.0128138 0.0205 -0.00811803 0.0116786 0.0205 -0.00886935 0.0140018 0.0219999 -0.00498372 0.0140037 0.0219999 0.00498998 0.0179993 0.0219999 0.00458747 0.0179965 0.0219999 -0.00496894 0.0235048 0.0205 0.00647885 0.0233146 0.022 0.00637537 0.022975 0.022 0.000742804 0.0253138 0.022 0.00495923 0.00149989 0.0219999 0.0109999 0.0127591 0.0219966 0.00767058 0.0062893 0.0219999 -0.00479054 0.00599998 0.0219999 -0.00399995 0.0060035 0.0219999 0.00496894 0.00999868 0.0219999 -0.00498998 0.00995737 0.0219999 0.00498492 0.0285978 0.022 -0.00384021 0.0324497 0.022 -0.00466865 0.0263668 0.022 0.00176919 0.0260299 0.022 -0.00120604 0.0285717 0.022 0.00384575 0.0317867 0.0206305 0.00428569 0.0324985 0.022 0.00556177 0.0324591 0.022 0.00999498 0.0297279 0.022 0.00692195 0.0311668 0.022 0.00837553 0.0290048 0.022 0.00859314 0.0295302 0.022 -0.0090571 0.0311738 0.022 -0.00772941 0.0324909 0.022 -0.00959945 0.0292025 0.022 -0.00719166 0.0240968 0.022 -0.00666821 0.0255851 0.022 -0.00558644 0.0232409 0.022 -0.00512057 0.0218678 0.022 -0.000852212 0.0210777 0.0219999 0.000548942 0.012182 0.021998 -0.00904632 0.0121376 0.0219992 -0.00734478 0.0118095 0.021963 0.00707442 0.0122717 0.0205014 0.00883543 0.00100648 0.0219292 0.0109999 0.000507298 0.0216299 0.0109999 0.000206598 0.021268 0.0109999 3.77973e-05 0.0208476 0.0109999 -6.01131e-07 0.0201041 0.0109795 1.84984e-05 0.0194999 0.0117347 7.3398e-05 0.0194999 0.0119634 0.000228598 0.0194999 0.0123037 0.000439298 0.0194999 0.0125606 0.000731998 0.0194999 0.0127934 0.00116926 0.0194999 0.0129673 0.00149989 0.0194999 0.0129999 0.00299996 0.0194999 0.0115 0.005 -0.0175 0.0115 0.00499999 0.0175 0.0115 0.0042094 -0.0193813 0.0115012 0.0045653 0.018969 0.0115001 0.00149989 -0.0194999 0.0129999 1.85001e-05 -0.0194999 0.0117347 0.000696199 -0.0194999 0.0127713 0.000342699 -0.0194999 0.0124607 0.000102399 -0.0194999 0.012056 0.00112832 -0.0194999 0.0129576 -2.99511e-07 -0.0196025 0.0110188 1.09006e-05 -0.0207692 0.0109999 0.000294799 -0.0214125 0.0109999 0.0007321 -0.0217934 0.0109999 0.00115299 -0.0219624 0.0109999 0.00149989 -0.0205 0.0109999 0.00149989 -0.0219999 0.0109999 0.0309029 -0.0205 0.0109971 0.0309418 -0.0219999 0.010994 0.03 -0.0205 -0.0109999 0.0324338 -0.0205 -0.00457501 0.0292497 -0.0205 -0.00706833 0.0295747 -0.0205 -0.00885636 0.0311776 -0.0205 -0.00801641 0.0238567 -0.0205 0.00475109 0.0255797 -0.0205 0.00551653 0.0233396 -0.0205 0.0063712 0.0290853 -0.0205 0.00866634 0.0295496 -0.0205 0.00698024 0.0311953 -0.0205 0.00831872 0.0060426 -0.0205 -0.00498491 0.0099994 -0.0205 0.00458747 0.00600129 -0.0205 0.00498998 0.00999647 -0.0205 -0.00496894 0.0179987 -0.0205 -0.00496888 0.0140018 -0.0205 -0.00498372 0.0140034 -0.0205 0.00496894 0.0179573 -0.0205 0.00498492 0.0288329 -0.0205 -0.0038889 0.0266218 -0.0205 0.0023377 0.0260921 -0.0205 -0.00154149 0.0295569 -0.0205 0.00396872 0.032495 -0.0205 0.00532699 0.0324804 -0.0205 0.00971544 0.0127273 -0.0205 0.00792998 0.0115333 -0.0205 0.00721031 0.0122465 -0.0205 0.00876373 0.0114148 -0.0205 0.00849956 0.0207689 -0.0205 0.000137587 0.0224733 -0.0205 -0.00100762 0.0228586 -0.0205 0.000777838 0.0254681 -0.0205 -0.00529456 0.0234739 -0.0205 -0.00500595 0.0239653 -0.0205 -0.00677669 0.0118303 -0.0205 -0.00708884 0.0127106 -0.0205 -0.00872081 0.0112316 -0.0205 -0.00826359 0.0324921 -0.0205 -0.00967401 0.00149989 -0.0205 -0.0109999 0.0179965 -0.0219999 0.00496894 0.0140037 -0.0219999 -0.00499004 0.0253026 -0.0219999 -0.00606024 0.0179999 -0.0219999 -0.00399995 0.0310866 -0.0219999 -0.00856727 0.030107 -0.0219999 -0.00693202 0.0288093 -0.0219999 -0.00822305 0.0242218 -0.0219999 0.00443703 0.0236577 -0.0219999 0.00659901 0.025363 -0.0219999 0.0060491 0.0304044 -0.0219999 0.00681126 0.0289345 -0.0219999 0.00833762 0.030568 -0.0219999 0.00898314 0.0140018 -0.0219999 0.00498372 0.00600129 -0.0219999 -0.00496888 0.00149989 -0.0219999 -0.0109999 0.00995737 -0.0219999 -0.00498491 0.00999868 -0.0219999 0.00498998 0.00601357 -0.0219999 0.00459689 0.0324906 -0.0219999 0.00967634 0.0324415 -0.0219999 0.00457877 0.0285978 -0.0219999 0.00384021 0.0288026 -0.0219999 -0.0038293 0.026207 -0.0219999 -0.0014916 0.0261888 -0.0219999 0.0015142 0.0324943 -0.0219999 -0.00532758 0.03 -0.0219999 -0.0109999 0.0113932 -0.0219999 -0.00761467 0.0120735 -0.0219999 -0.0086692 0.0124771 -0.0219999 -0.00731754 0.0324758 -0.0219999 -0.00981682 0.0231631 -0.0219999 -0.0061084 0.0250418 -0.0219999 -0.00481713 0.021713 -0.0219999 0.00116986 0.0223231 -0.0219999 -0.001118 0.0128222 -0.0219999 0.00859034 0.0114669 -0.0219999 0.00762552 0.00100631 -0.0219291 -0.0109999 0.000507201 -0.0216299 -0.0109999 0.000139701 -0.0211595 -0.0109999 1.38123e-09 -0.0206219 -0.0109769 1.35224e-09 -0.0195088 -0.0114268 1.85012e-05 -0.0194999 -0.0117346 7.34008e-05 -0.0194999 -0.0119634 0.0002286 -0.0194999 -0.0123037 0.000539199 -0.0194999 -0.0126573 0.000819 -0.0194999 -0.0128364 0.00116927 -0.0194999 -0.0129673 0.00149989 -0.0194999 -0.0129999 0.00422567 -0.0193893 -0.0129983 0.005 -0.0175 -0.0129999 0.005 0.0175 -0.0129999 0.00426716 0.0194328 -0.0129999 -3.49686e-10 0.0194999 -0.0115 3.80183e-10 -0.0115037 0.00280613 5.77599e-10 -0.00658268 -0.00663126 4.23182e-10 -0.00311488 -0.0065664 6.87266e-10 -0.00693107 -0.00879174 7.37866e-10 -0.00785029 -0.0090301 7.62182e-10 -0.00884467 -0.00859201 0.000524101 -0.00908291 -0.00748891 6.12116e-10 -0.00747424 -0.00652933 -7.87014e-11 -0.00667936 0.00847983 -2.31516e-11 -0.00850248 0.00903213 -7.60947e-10 0.00888204 0.00852638 -7.15165e-10 0.00732327 0.00903779 8.75676e-11 0.00707507 -0.00907838 -7.85268e-11 0.00924623 -0.00744975 -2.73045e-12 0.00667149 -0.00660902 -6.2613e-10 0.0115001 0.00282407 -8.47928e-10 0.015454 0.00394434 -5.27815e-10 0.0159894 -0.00391436 -3.40182e-10 0.011661 -0.00387859 8.21611e-10 -0.0159997 -0.00279659 0.000569 -0.0154253 0.00396258 3.70811e-10 -0.0124719 0.00398868 8.35406e-10 -0.0151299 -0.00398201 7.02541e-10 -0.0120996 -0.00397271 -5.44099e-10 0.00320941 0.00923812 -4.7949e-10 0.00235277 0.00861668 0.00127393 0.00247091 0.00714874 -5.86903e-10 0.00455236 0.00887442 1.08559e-10 -0.00704598 0.00456244 2.88191e-10 -0.00930554 0.00271249 1.90181e-10 -0.00697964 0.0026288 5.61279e-10 -0.00344294 -0.00939762 4.61333e-10 -0.00225115 -0.00830293 5.63212e-10 -0.00483841 -0.00804639 1.64609e-11 0.00276482 -0.0031414 -2.18903e-10 0.00915384 -0.00414592 1.89968e-06 -0.00407958 0.0092063 1.19982e-06 0.00319624 -0.00966734 4.73391e-10 -0.00463468 -0.00619525 5.11151e-10 -0.00660896 -0.00508481 1.19992e-05 -0.00698549 0.00616765 -4.41785e-10 0.00549585 0.00461101 -5.92388e-10 0.00640315 0.0071491 -5.90078e-06 0.00459367 -0.00650871 6.98477e-07 0.00503838 -0.00468612 -1.05404e-10 0.00637895 -0.00396758 3.98477e-07 -0.0010491 0.00399846 5.09967e-06 0.00250036 0.00332063 5.50987e-05 0.0040502 0.000440216 1.20162e-09 -0.0186288 -0.00886106 1.12901e-09 -0.0167449 -0.00908381 1.05502e-09 -0.0162762 -0.00785977 0.000233001 -0.0177506 -0.00660366 0.00149959 0.016482 -0.00710285 -4.3023e-10 0.0185842 -0.00874168 -3.79889e-10 0.0196999 -0.011009 -3.26108e-10 0.0166198 -0.00915933 -4.8318e-10 0.0179949 -0.00694108 -1.06782e-09 0.016161 0.00826794 -1.0378e-09 0.0166333 0.00710887 -1.08485e-09 0.0181033 0.00671524 -1.20445e-09 0.0182859 0.00926864 3.28838e-10 -0.0166524 0.00912946 3.91792e-10 -0.0163672 0.00740403 4.28766e-10 -0.0185905 0.00878143 5.01035e-10 -0.0181879 0.00672561 2.92326e-10 0.00124192 -0.00792956 4.1937e-10 -0.000700457 -0.00889361 3.43398e-10 -0.000711938 -0.00714409 -4.22703e-10 0.00880545 0.000864864 -2.88332e-10 0.0083015 -0.00170523 -3.15871e-10 0.00690955 0.000316743 4.19358e-10 -0.00840217 -0.00119162 2.80227e-10 -0.00759882 0.00118798 -7.17069e-10 0.0124129 0.00399172 -5.73248e-10 0.00692415 0.00619024 7.4822e-11 -0.0083763 0.00666457 1.85122e-10 -0.00874543 0.00451034 -1.35505e-09 0.0194999 0.0115 -3.09999e-10 -0.00113583 0.00822776 -4.17177e-10 0.000744154 0.00879973 -3.84104e-10 -0.000196509 0.00898379 -2.94713e-10 -0.000246269 0.00698852 0.0008008 0.000869075 0.00735325 0.00499999 0.0175 0.0129999 0.005 -0.0175 0.0129999 0.00427997 0.0194071 0.0129999 0.00344139 -0.0194959 0.0129999 4.69971e-06 -0.00271297 -0.00324899 3.74002e-05 0.00109559 -0.00394481 0.00149745 0.00278968 -0.0031414 1.01999e-05 -0.00403267 0.00129622 0.0009763 0.00329125 -0.00918621 0.0014776 -0.00714338 -0.00273192 0.00110429 -0.00419885 0.00719053 8.69834e-06 -0.00239766 0.0073005 2.79913e-06 0.0069747 0.00289607 1.69822e-06 0.00895888 0.00267655 3.79924e-06 0.00791556 0.00481933</float_array>
                    <technique_common>
                        <accessor count="414" source="#shape0-lib-positions-array" stride="3">
                            <param name="X" type="float"/>
                            <param name="Y" type="float"/>
                            <param name="Z" type="float"/>
                        </accessor>
                    </technique_common>
                </source>
                <source id="shape0-lib-normals" name="normal">
                    <float_array id="shape0-lib-normals-array" count="2973">1 4.73625e-08 4.45764e-08 1 6.55641e-08 1.03804e-08 1 6.52187e-08 1.03257e-08 -0.670033 0.716147 0.195422 1 4.16906e-08 6.59179e-08 0.999692 0.00992971 0.0227483 0.99976 -0.00438028 -0.0214876 1 4.47754e-08 3.277e-08 1 9.49718e-08 -3.43747e-08 0.999996 -0.00244128 0.00160641 0.999961 0.00169776 -0.00867226 1 4.57726e-08 4.64529e-08 -1 -5.14094e-08 -3.11503e-08 0.999968 -0.00224222 0.00770847 0.999976 0.00639521 0.00280811 1 5.52497e-08 3.93725e-08 -1 -3.99412e-08 -4.50176e-08 -1 -2.65645e-08 -5.11788e-08 1 6.04612e-08 4.36539e-08 1 6.98676e-08 9.42519e-08 -0.761631 0.267945 -0.590021 -1 -5.09936e-08 -4.30848e-08 -1 -3.39605e-08 -4.21012e-08 1 1.05701e-07 3.43481e-08 1 1.00283e-07 3.99363e-08 -1 -0.000133896 -0.000159698 -1 0.000129855 5.7409e-05 1 2.87038e-08 3.42351e-08 1 9.53285e-08 4.2145e-08 -1 -3.77685e-08 -9.59717e-08 1 4.18461e-08 6.59835e-08 -0.991125 0.0189875 0.131571 0.985318 -0.0494052 -0.163426 1 3.46011e-08 1.14457e-07 -0.871913 -0.189657 0.451439 -1 -6.88002e-09 -6.82587e-08 1 3.75425e-08 1.23592e-07 -1 -4.28707e-08 -5.78578e-08 1 7.49247e-08 6.34154e-08 1 6.23457e-08 7.24525e-08 0.999998 0.0013956 -0.0013114 1 3.24214e-08 6.50913e-08 -1 1.26889e-09 -7.15437e-08 1 2.24735e-08 8.39542e-08 -0.687019 -0.133155 -0.714335 -0.0585587 -0.19639 0.978776 0.931918 -0.322783 -0.16535 0.305505 0.172568 -0.936422 -0.00135663 0.717329 -0.696734 0.707233 0.0137826 0.706846 0.329387 -0.528475 0.782444 0.782134 -0.437344 -0.443844 0.778395 -0.130831 0.61399 1 8.00678e-08 3.51575e-08 1 6.36917e-08 3.61799e-08 1 2.66823e-08 2.25051e-08 -1 -3.11649e-08 -5.39618e-08 -1 8.8105e-07 -2.93809e-07 1 3.45887e-08 5.60796e-08 1 4.11687e-08 5.30806e-08 -1 0.000580379 0.000417999 0.999999 -0.00116336 -0.000477338 -1 -5.05556e-08 -5.60773e-08 1 0 0 1 5.6766e-08 4.04804e-08 1 8.66227e-08 5.95555e-08 -1 -2.03888e-08 -3.37987e-08 1 1.08241e-08 2.85961e-08 -1 -2.39107e-08 -6.36044e-08 1 5.97356e-08 5.27595e-08 1 9.00877e-09 8.22587e-08 1 1.17922e-09 1.03453e-07 1 1.14095e-07 4.64726e-08 -0.909695 -0.330554 0.251375 -1 -3.59556e-08 -1.03349e-07 -0.974253 0.110035 0.196782 1 4.35583e-08 5.66629e-08 1 3.2571e-08 1.20217e-07 -1 -4.17215e-08 -7.46126e-08 -1 -1.11187e-08 -7.8402e-08 1 8.14831e-08 6.87267e-08 1 3.42106e-08 5.34408e-08 0.555418 0.732186 -0.394227 1 2.51243e-08 6.61571e-08 -1 -3.18602e-08 -5.7689e-08 1 2.65591e-08 4.57197e-08 1 1.71743e-08 -6.21616e-09 1 5.13647e-08 3.41629e-08 1 5.8214e-08 6.08282e-08 1 5.13942e-08 3.40612e-08 1 5.4092e-08 4.23332e-08 1 5.81398e-08 4.08451e-08 1 7.47892e-08 5.15221e-08 1 3.77252e-08 5.40274e-08 1 3.75993e-08 5.41528e-08 -1 -5.74601e-08 -4.03677e-08 1 -2.08941e-07 5.40326e-08 1 2.3203e-08 3.78593e-08 -1 -5.12666e-08 -3.10844e-08 1 5.64009e-08 4.70044e-08 1 5.54776e-08 4.68053e-08 1 -1.2973e-07 2.78907e-08 1 1.59132e-08 5.21148e-08 1 7.04052e-08 1.97439e-08 1 -7.0396e-08 5.19161e-08 1 8.53636e-08 -1.83524e-08 1 8.05727e-08 4.96995e-08 1 4.91383e-08 4.51219e-08 1 6.66568e-08 5.62407e-08 0.999768 -0.0196515 -0.00876745 0.852428 -0.408251 -0.326646 -0.660885 0.436537 0.610465 0.999848 0.0135111 -0.0110207 -1 -5.73124e-08 -2.07038e-08 -1 -3.92653e-08 -5.02942e-08 1 4.72372e-08 4.23332e-08 1 -9.37114e-05 -2.01445e-05 1 3.21332e-08 2.2899e-08 1 0.000459619 0.000911674 1 2.88882e-08 1.58043e-08 1 3.35644e-08 -4.51488e-09 -1 -6.07714e-08 -3.36595e-08 -0.592213 -0.139375 -0.793636 -0.999992 -0.00307392 0.00240069 1 4.42674e-08 4.44517e-08 -1 0.00012772 1.98539e-05 1 5.71449e-08 2.32365e-08 1 -0.000819406 0.000241455 1 4.84175e-08 2.74883e-08 1 4.98474e-08 2.72707e-08 -0.827132 0.534578 -0.173436 1 2.38063e-08 3.40527e-08 1 6.431e-08 5.90804e-08 1 4.20318e-08 3.86138e-08 -1 -2.07774e-08 -2.90557e-08 1 5.0606e-08 5.20199e-08 1 3.78293e-08 4.79563e-08 -1 -3.52123e-08 -4.91707e-08 1 4.11463e-08 5.60671e-08 1 4.52483e-08 1.80974e-09 1 4.36282e-08 1.19052e-08 1 4.48233e-08 1.9043e-08 1 7.16992e-10 6.40921e-08 1 5.35456e-08 -5.92533e-11 -1 -4.7257e-08 -4.96765e-08 1 4.46836e-08 6.39158e-08 -1 -4.72544e-08 -3.28628e-08 1 4.47754e-08 4.61534e-08 -1 -4.94827e-08 -5.85277e-08 1 5.17281e-08 7.01193e-08 1 4.40192e-08 7.92914e-08 -1 -5.43998e-08 -2.48772e-08 1 4.49819e-08 5.22739e-08 1 3.76855e-08 9.5074e-08 0 0 1 0 0 1 0 0 1 0 0 1 0.715383 -0.590027 0.374292 0.0146595 0.999736 -0.0176851 0.0242447 0.999706 1.8817e-09 0 1 0 0 1 0 0 1 0 0 1 0 0 1 0 0 1 0 0 1 0 0 0.926122 -0.377223 -0.227056 0.435558 -0.871054 0.00196051 0.00772324 -0.999968 0 0 -1 0 0 -1 0 0 -1 3.26779e-08 4.6655e-09 -1 3.24342e-08 0 -1 0.266281 0 -0.963895 0 -1 0 0.000420124 -1 -0.000300003 0.000374749 -1 -0.000323726 0.000541211 -1 6.65628e-05 1.27573e-07 -1 2.63804e-07 -1.03897e-07 -1 4.91567e-07 0 -1 0 0 -1 0 6.26224e-08 -1 -5.43825e-08 0 -1 0 0 -1 0 0 -1 0 0 -1 0 0 -1 0 0 -1 0 0 -1 0 0 -1 0 8.82106e-07 -1 -5.1441e-07 0 -1 0 0 -1 0 0.0445083 -0.998512 -0.0315231 4.20418e-07 -1 -4.10621e-07 2.72189e-07 -1 -2.03185e-07 3.49246e-07 -1 6.01711e-09 0 -1 0 0 -1 0 0 -1 0 0.720053 -0.373704 0.584696 5.52378e-08 -1 -1.43139e-07 -0.000367136 0.999999 -0.0011946 -0.427157 0.637482 0.641212 8.21733e-07 -1 2.67378e-06 3.35526e-07 -1 7.44588e-07 0 -1 0 0 -1 0 8.67022e-08 -1 1.0004e-08 3.26672e-07 -1 2.12141e-07 0 -1 0 0 1 0 0 -1 0 -7.94501e-07 1 -2.92808e-08 0 -1 0 0 1 0 0 -1 0 3.68797e-07 -1 1.07649e-07 0 -1 0 0 -1 0 0 -1 0 0 -1 0 0 -1 0 0 -1 0 7.32345e-07 -1 1.04686e-06 8.79064e-08 -1 -1.22098e-07 0 -1 0 0 -1 0 0 -1 0 8.64721e-08 -1 -1.30652e-07 6.53558e-08 -1 -3.12237e-07 -0.00370044 -0.00421654 0.999984 0.999999 0.00127266 0.000191517 0.999999 -0.00127267 -0.000191518 -0.00277989 0.00417564 -0.999987 -0.0972214 -0.243153 -0.965103 -0.998857 0.0471394 -0.00793371 -0.999998 -0.0021038 0.000298992 -0.139865 0.359335 0.922668 0 1 0 0 1 0 0 1 0 0 1 0 0 1 0 0.000278092 1 -0.000727287 -0.00268223 0.999996 5.13695e-07 0.000131665 0.999999 0.00130702 -4.813e-07 1 1.43905e-10 -2.4366e-07 1 1.69141e-07 4.76637e-07 1 -0.000304893 0 -1 0 -7.63015e-05 1 2.99176e-08 -5.04514e-06 0.999999 0.0012488 0.00118732 0.999999 4.91668e-06 0 1 0 0 1 0 0 1 0 0 1 0 0 1 0 0 1 0 0.336402 0.542461 -0.769786 0 1 0 0 1 0 0 1 0 0 1 0 -6.38553e-08 1 4.41711e-08 0 1 0 0 -1 0 0.453932 0.376929 -0.807385 0 -1 0 0 1 0 0 1 0 0 1 0 0 1 0 0 1 0 -1.13453e-09 1 3.06589e-07 -8.83881e-05 1 -0.000234731 -1.25845e-05 1 0.000135715 -9.75292e-05 1 -0.000393916 6.52188e-05 1 -9.52783e-05 0 1 0 0 -1 0 0 1 0 -3.67382e-07 1 -4.22357e-07 -3.58505e-07 1 -1.15329e-07 1.05674e-06 -1 -7.33553e-07 -3.5769e-07 1 2.15677e-08 -4.12521e-07 1 0.000263879 -0.00124028 -0.999994 -0.0031913 -1.8785e-07 1 -4.83346e-07 -5.53041e-08 1 1.41896e-07 0.000380681 1 0.000284272 -2.16009e-05 1 -1.61304e-05 0.00709323 -0.00483689 0.999963 0.916933 -0.215958 0.335554 0.0532467 -0.127972 0.990347 0.999999 0.00112783 -0.000392097 0.999653 0.0260148 -0.00414829 0.00403972 -0.0105434 -0.999936 -0.00412779 0.0107733 -0.999933 -0.99961 -0.027601 -0.00413938 -0.968076 0.24786 0.0373497 -0.915828 -0.40088 -0.0235711 -0.756599 -0.0039832 -0.653867 0.963901 -0.0256148 -0.265025 0.948506 -0.315775 0.0249491 -0.530926 0.273172 0.802181 0.425351 -0.6384 -0.6415 0.999397 -0.0336931 0.00835927 0.999128 0.0402199 -0.0112262 0.206465 0.189365 0.959955 0.685573 -0.00818164 -0.727958 0.713392 0.0747572 -0.696766 0.98763 -0.109935 -0.11181 0.993332 0.114012 0.017114 0.738549 -0.040929 0.672957 0.711661 -0.110648 0.693755 0.170249 0.123006 0.977694 0.139548 0.00950994 -0.99017 0.925493 -0.352927 -0.137494 0.999659 0.0245427 0.00887153 0.757705 -0.211853 0.617253 0.481464 0.173912 0.859039 4.89787e-05 0 1 0.000457029 -0.00793518 0.999968 0 0 1 0 0 1 0 0 1 0 0 1 -0.00645419 -0.0271472 0.999611 -0.0166261 0.0113964 0.999797 0.235276 0.900125 0.366634 0 0.652689 0.757626 0 1 0 0 1 0 0 1 0 0 1 0 0 1 0 0 1 0 0 1 0 0.0333221 0.998889 0.0333247 0 1 0 0.000475726 -0.000832582 -1 0 0 -1 0 0 -1 0 0 -1 0.000116145 0.000116152 -1 0.0436941 -0.99759 -0.0539032 0.002055 -0.999998 1.59494e-10 0.0223836 -0.989713 0.141306 0 -1 0 0 -1 0 0 -1 0 0 -1 0 0 -1 0 0.00291444 -0.0161185 0.999866 -0.248296 -0.433233 0.866405 0 0 1 0 0 1 0 0 1 0 0 1 9.51815e-05 0 1 0.00020036 -0.00206178 0.999998 0 1 0 0 1 0 0 1 0 0 1 0 0 1 0 -6.3344e-08 1 4.93988e-08 0 1 0 0 1 0 0 1 0 0 1 0 0 -1 0 0 1 0 0 1 0 0 1 0 0 1 0 0 1 0 0 1 0 0 1 0 0 -1 0 0 1 0 0 1 0 0 1 0 0 1 0 0 1 0 0 1 0 0 -1 0 0 1 0 -5.57222e-08 1 1.39497e-07 0 1 0 0 -1 0 0 -1 0 0 1 0 0 1 0 0 1 0 0 1 0 0 1 0 -2.03008e-07 1 -5.55445e-07 -3.19779e-07 1 -1.02083e-07 -3.23163e-07 1 -1.87442e-07 -9.65686e-07 1 2.42607e-07 -1.31377e-06 1 -3.28788e-07 -3.3895e-07 1 1.83876e-07 0 1 0 0 1 0 0 1 0 0 -1 0 0 1 0 0 -1 0 0 1 0 0 1 0 0 1 0 0 -1 0 0 1 0 -6.53558e-08 1 -7.11577e-08 -3.34008e-07 1 9.13731e-07 0 -1 0 0 1 0 0 1 0 -0.00371343 -0.00421656 0.999984 -0.203766 0.531113 0.822435 -0.999999 -0.00103781 -0.000378182 -0.999652 -0.0260606 -0.00415488 -0.00370003 0.0105521 -0.999937 0.00403981 -0.00985875 -0.999943 0.999999 -0.00107513 -0.000161791 0.999999 0.00127266 0.000191517 0 -1 0 0 1 0 0 -1 0 0 -1 0 0 -1 0 0 -1 0 0 -1 0 0 -1 0 6.32554e-08 -1 -4.77991e-08 0 -1 0 0 -1 0 0 -1 0 0 -1 0 4.30741e-07 -1 1.62899e-10 0 -1 0 0 -1 0 0 -1 0 0 -1 0 0 -1 0 0 -1 0 0 -1 0 0 -1 0 0 -1 0 0 -1 0 0 -1 0 0 -1 0 0 -1 0 0 -1 0 6.53558e-08 -1 -1.94827e-07 0 1 0 0 -1 0 0 -1 0 0 -1 0 0 -1 0 7.87491e-08 -1 -1.31093e-07 0 -1 0 0 -1 0 0 1 0 0 -1 0 3.48579e-07 -1 3.31478e-07 2.71109e-07 -1 5.6884e-08 2.89171e-07 -1 2.12532e-07 2.90716e-07 -1 -9.93662e-08 3.06028e-07 -1 7.984e-08 1.84056e-07 -1 5.03451e-07 0 -1 0 0 1 0 0 -1 0 0 -1 0 0 -1 0 0 -1 0 5.24469e-08 -1 -1.5918e-07 0.00405265 0.0105772 0.999936 -0.00403972 -0.0105434 0.999936 -0.999653 0.0260142 0.00413956 -1 0.000558892 0.000305717 -0.0967799 -0.25792 -0.961307 0.0949679 0.253091 -0.96277 0.999963 0.00852268 -0.00128355 0.999614 -0.0274831 0.00413944 -0.884446 0.384731 0.26408 -0.841332 -0.29361 -0.453821 0.255801 0.252589 -0.933148 0.886512 -0.0999532 -0.451781 0.79914 0.309134 0.515569 0.294103 -0.0921736 0.951319 -0.835315 -0.2649 -0.481743 0.295264 0.220775 -0.929558 0.51979 0.443504 -0.730153 0.995632 -0.018756 0.0914662 -0.499597 0.251574 0.828923 -0.552035 0.306494 0.775448 0.999337 0.0345743 0.0114262 0.999936 -0.0105017 -0.00412978 0.468239 0.0786938 -0.880091 0.431163 0 -0.902274 0.342974 -0.410161 0.845066 0.187055 0.0352353 0.981717 0.472779 -0.229414 -0.850794 0.681832 0.190862 -0.70617 0.969311 -0.207154 -0.132373 0.997042 0.0766236 0.00604752 0.6673 0.0757914 0.740923 0.650394 0.0170472 0.759406 0.188573 -0.0364983 -0.981381 0.384404 0.401068 -0.831491 0.999972 0.00671353 0.0033148 0.999478 -0.0308243 -0.00963127 0.630512 0.0147562 0.776039 0.647918 -0.0154458 0.761553 3.26779e-08 0 -1 3.26779e-08 0 -1 0 0 -1 0 0 -1 0 0 -1 -0.0184535 0.0380612 -0.999105 -0.0144626 -0.011185 -0.999833 0.207084 -0.366657 -0.907016 -0.0125185 -0.928968 -0.369949 0.00455378 -0.999576 -0.028755 0 -1 0 0 -1 0 0 -1 0 0 -1 0 0 -1 0 0 -1 0 0.0405519 -0.999169 -0.00417878 0.0372743 -0.999305 0 0.925301 -0.379234 0 1 3.99139e-08 0 1 5.32185e-08 3.10451e-07 0.935044 0.354531 2.90286e-07 0.830817 0.501805 0.240697 0.000659456 -0.00115413 -0.999999 0 0 -1 0 0 -1 0 0 -1 -0.998199 -0.000112631 -0.0599983 -0.996905 -4.36456e-08 -0.0786127 -0.967586 -4.23312e-08 -0.252542 -0.972404 0.000168888 -0.233304 -0.909835 -0.000309117 -0.41497 -0.870501 0.000308365 -0.492166 -0.747357 -0.000218835 -0.664422 -0.751295 -0.000153442 -0.659967 -0.552114 0.000131918 -0.833769 -0.539134 -2.33074e-08 -0.84222 -0.364651 -1.57831e-08 -0.931144 -0.350046 -0.000133256 -0.936732 -0.113356 0.000128693 -0.993554 -0.0983329 -4.11283e-09 -0.995154 -0.999995 -0.00122306 0.00296334 -0.999998 -0.000764786 -0.00183471 -1 -4.37114e-08 -4.37114e-08 1 4.37114e-08 4.37119e-08 -1 -4.37114e-08 -4.37114e-08 0.839236 0.452917 -0.300915 1 4.37114e-08 4.37114e-08 -0.999977 -0.00505851 -0.00451975 -1 -4.37114e-08 -4.37114e-08 -0.999966 0.00812942 -0.00139304 -1 -4.37114e-08 -4.37115e-08 0.442947 0.895277 0.0477154 -1 -4.37114e-08 -4.37114e-08 1 4.37114e-08 4.37114e-08 -1 -4.37114e-08 -4.37114e-08 -1 -4.37114e-08 -4.37114e-08 1 4.37114e-08 4.37114e-08 -1 -0.000700284 0.000547349 1 4.37114e-08 4.37114e-08 -1 -4.37114e-08 -4.37114e-08 -1 -0.000667577 -1.60711e-05 1 4.37114e-08 4.37114e-08 0.977023 0.189101 -0.0983178 -1 -4.37114e-08 -4.37114e-08 -1 -4.37114e-08 -4.37114e-08 -1 0.000327666 -0.000398787 1 4.37114e-08 4.37114e-08 0.562661 0.627019 0.538757 1 4.37114e-08 4.37115e-08 -1 -4.37114e-08 -4.37115e-08 -0.740372 -0.335187 0.582666 -0.908455 -0.285013 -0.30574 -1 -4.37114e-08 -4.37114e-08 -0.999972 -0.000229442 0.00748354 1 4.37115e-08 4.37137e-08 -1 -4.37114e-08 -4.37114e-08 -1 -4.37114e-08 -4.37114e-08 1 4.37114e-08 4.37114e-08 -1 -4.37114e-08 -4.37114e-08 -1 -4.37114e-08 -4.37114e-08 -1 -4.37114e-08 -4.37114e-08 -1 -0.000729898 0.000625123 -0.999999 -0.000446921 0.000975453 -0.999999 0.00134396 -0.000473511 -0.999999 0.00159261 -0.000259095 -0.999997 0.0017029 -0.00154025 1 0.000153837 -0.000752651 -0.999997 -0.000815467 0.00218051 -0.999994 0.000245331 -0.00335082 -0.999996 0.000626537 0.00276942 -1 -0.000437892 0.000262231 -1 0.000372961 -3.28314e-05 -0.999995 0.00296066 0.000899922 -1 -0.00010438 -0.000273706 -0.999991 0.00267421 -0.0034311 1 0.000173086 0.000884923 -0.987114 0.106669 0.11928 -0.992382 -0.108983 -0.0574519 -1 -4.37114e-08 -4.37114e-08 -1 -4.37114e-08 -4.37114e-08 -1 -4.37114e-08 -4.37114e-08 -0.999966 0.00196513 0.00798727 -0.999998 0.000255544 0.00201089 -0.999991 0.003903 -0.00144997 -0.999993 0.00237374 0.00304159 -1 -0.000155825 -0.000681509 0.999332 -0.0364796 -0.00228161 -0.999998 -0.00200716 0.000707024 0.998913 -5.86752e-05 0.046623 0.999999 0.000876722 -0.000955553 -1 -4.37114e-08 -4.37114e-08 -1 -4.37114e-08 -4.37114e-08 1 4.37115e-08 4.37113e-08 1 4.37114e-08 4.37114e-08 0.624995 0.663481 -0.411307 -1 -4.37114e-08 -4.37114e-08 -1 -4.37115e-08 -4.37115e-08 -1 -4.37112e-08 -4.37113e-08 -1 -4.37114e-08 -4.37114e-08 1 3.35023e-05 0.000124997 -1 -0.000353701 2.52431e-05 -1 -0.0006759 0.000367671 -1 9.39764e-06 -0.000144031 -1 2.22181e-05 -0.000124012 -0.999945 -0.00952755 -0.00444397 -1 -4.37114e-08 -4.37114e-08 -1 -4.37114e-08 -4.37114e-08 1 4.37114e-08 4.37114e-08 -1 -4.37114e-08 -4.37114e-08 1 4.37114e-08 4.37114e-08 1 4.37113e-08 4.37112e-08 -1 -4.37114e-08 -4.37114e-08 0.239324 0.0622718 0.968941 -1 -4.37114e-08 -4.37114e-08 -1 -4.37114e-08 -4.37114e-08 -1 -4.37114e-08 -4.37114e-08 -1 -4.37114e-08 -4.37114e-08 -1 -4.37114e-08 -4.37114e-08 -1 -0.000153088 0.000452381 1 4.37114e-08 4.37114e-08 -1 -4.37114e-08 -4.37114e-08 -0.97579 0.208423 -0.0662901 -0.999999 0.00136542 0.000821974 -1 -4.37114e-08 -4.37114e-08 -0.999999 -0.000316145 0.00109332 -0.999999 -0.000925126 0.0011087 -1 -4.37114e-08 -4.37114e-08 0.999997 0.00224806 0.00114504 -1 -4.37114e-08 -4.37114e-08 1 4.37114e-08 4.37114e-08 -1 -6.23907e-05 -2.61741e-05 -1 -4.29343e-05 -2.84641e-05 -1 -4.37114e-08 -4.37114e-08 -1 7.5469e-05 9.61214e-05 -1 -5.53108e-05 -2.50448e-05 -0.999991 -0.000447764 0.00413297 1 4.37114e-08 4.37114e-08 -1 -4.37114e-08 -4.37114e-08 -0.999991 -0.00156299 -0.00390204 -1 -4.37114e-08 -4.37114e-08 1 -0.000338877 0.000458915 -0.999999 0.00127077 -0.000474566 -1 -4.37114e-08 -4.37114e-08 1 4.37114e-08 4.37114e-08 1 4.37114e-08 4.37115e-08 1 4.37114e-08 4.37114e-08 0.991084 0.0521783 -0.122595 0.999956 -0.0037138 -0.0085605 -1 -0.000641218 0.000491645 0.552709 -0.63872 0.535303 -1 -4.37114e-08 -4.37114e-08 -1 -4.37114e-08 -4.37114e-08 1 4.37113e-08 4.37114e-08 1 4.37114e-08 4.37114e-08 -1 -4.37114e-08 -4.37117e-08 0.999997 -0.000376272 0.002238 -0.999994 0.000742078 -0.00324822 -1 -4.37114e-08 -4.37114e-08 0.708341 -0.619322 0.338664 -1 -0.000135202 -9.70638e-05 -0.999988 0.000394719 -0.00486866 1 -1.4853e-05 9.39868e-05 -1 -4.37114e-08 -4.37114e-08 -1 -4.37114e-08 -4.37114e-08 1 4.37114e-08 4.37114e-08 -0.999356 0.0358722 -0.000686785 -0.998669 0.0515806 -0.000138024 -0.927971 0.372654 0.000203426 -0.918582 0.395231 -0.00027514 -0.769204 0.639003 0.000271138 -0.731169 0.682195 -0.000851032 -0.514204 0.857667 0.00129773 -0.370557 0.928808 -0.0017328 -0.141937 0.989875 0.00136513 -0.999654 -0.000316014 0.026296 -0.996907 -4.35862e-08 0.0785928 -0.967574 -4.23307e-08 0.252586 -0.97239 -0.000168826 0.233362 -0.909835 0.000309037 0.41497 -0.859818 -0.000460063 0.5106 -0.773207 0.000290728 0.634154 -0.660053 -0.000289412 0.751219 -0.622409 0.000128586 0.782692 -0.395853 -0.000156087 0.918314 -0.369583 0.000156693 0.929198 -0.11332 -0.000128393 0.993559 -0.0983329 -4.11283e-09 0.995154 0 0 1 0 0 1 0 0 1 0 0 1 0.742323 -0.579675 0.336055 0.313993 0.925747 -0.210713 0.932941 0.352218 0.0745855 0.958899 0.283749 0 1 3.99139e-08 0 1 5.32185e-08 3.10451e-07 0.921903 -0.38742 2.86206e-07 -0.967865 -0.251466 -0.0012059 -0.914874 -0.403736 0.00180537 -0.788055 -0.615603 -0.00152595 -0.656717 -0.754136 0.00111088 -0.514112 -0.857722 -0.00111649 -0.37269 -0.927955 0.00107947 -0.142124 -0.989849 -0.000551594 -0.107613 -0.994193 -4.62816e-09 0.00719607 -0.433546 0.901103 0.015622 -0.941184 0.337533 -0.118274 -0.861652 -0.493526 -0.0587574 -0.878671 -0.473798 0.174316 -0.184927 -0.967169 -0.26361 0.0241192 -0.964328 0.277263 0.645479 -0.711675 -0.277036 0.824359 -0.493644 0.144309 0.942377 0.301828 0.21205 0.938568 0.272258 -0.226614 0.511301 0.828986 0.253019 0.171775 0.95209 -0.266749 -0.215582 0.939345 0.0907748 -0.927381 0.362939 -0.0953862 -0.742348 0.663191 0.29365 -0.424976 0.85625 -0.317884 0.723705 0.612536 0.404339 0.91459 0.00600189 -0.186193 -0.165139 -0.968536 0.0952624 -0.371301 -0.923613 0.057518 0.471653 -0.879906 -0.576301 -0.710594 -0.403651 -0.00265716 -0.99392 -0.110077 0.00637017 -0.0839771 0.996447 0.177008 0.0469595 0.983088 -0.1106 0.965631 -0.235212 -0.175617 0.944329 -0.27821 0.295982 -0.937343 0.183799 -0.575745 -0.126502 0.807784 0.255653 0.796319 0.548195 -0.373899 0.888143 -0.267209 0.376129 0.257339 -0.890114 -0.383837 -0.760425 -0.523854 0.307503 -0.705721 0.638279 -0.266916 0.803919 0.531479 -0.278782 0.475383 -0.834441 -0.0537098 -0.877401 -0.476742 -0.309598 -0.929171 0.201968 -0.298331 -0.0963223 0.94959 0.265072 0.783312 0.562281 -0.368109 0.740091 -0.562815 -0.122836 0.622256 -0.773116 0.179328 -0.188915 -0.96548 -0.220377 -0.953764 -0.204373 0.4282 -0.361687 0.828147 -0.793367 0.608506 -0.0170034 0.291867 0.15825 -0.943277 0.598886 -0.758761 0.256158 -0.15794 -0.279479 0.947073 -0.0329006 0.9186 0.393817 0.602647 0.756083 -0.255253 -0.146977 0.330204 -0.932397 -0.0150003 -0.938617 -0.344636 -0.0372327 -0.990387 0.133221 0.427998 -0.197403 0.881958 -0.485687 0.533915 0.692129 0.140421 0.989949 0.016827 0.112987 0.987201 -0.112555 0.165157 -0.74944 -0.641142 -0.20607 0.951168 0.229812 -0.109746 -0.909066 0.401939 -0.192097 0.28272 -0.93977 -0.702307 0.711449 -0.024601 0.752289 -0.626677 0.203316 0.147855 -0.866954 0.475952 0.682177 0.0996332 -0.724367 0.722138 0.0355142 -0.690837 -0.366217 -0.276993 0.888347 -0.402939 0.873854 -0.272066 -1.96155e-06 0.998254 -0.0590659 0.00169606 -0.0599131 0.998202 0.27882 -0.251136 -0.926925 0.22308 -0.731273 -0.644574 -0.0662111 -0.608123 -0.791077 0.158884 0.93263 -0.323971 -0.016941 0.898149 -0.439365 0.048925 0.109861 0.992742 -0.454517 -0.279672 0.845693 0.419685 -0.815914 -0.397679 -0.311548 -0.423657 -0.85056 0.480536 -0.0912635 0.872213 0.0110065 0.757409 -0.652848 -0.315804 0.811336 0.491936 -0.00101836 0.762014 -0.647559 -0.132283 -0.93579 -0.3268 -0.228189 -0.901204 -0.368458 0.202258 0.681254 0.703552 0.0619809 -0.675169 0.735055 0.0906797 -0.891671 -0.443509 0.775946 -0.504917 0.378109 -0.353234 -0.0981674 -0.93037 0.468826 0.575437 -0.67013 -0.176142 0.963128 0.203367 -0.0644804 0.367722 0.927698 -0.0906926 -0.570926 0.815977 0.061994 0.952904 -0.296868 -0.143448 0.882223 -0.448448 0.122804 0.0304072 -0.991965 -0.168351 -0.286499 -0.943174 -0.0397961 0.035928 0.998562 0.0635761 0.100082 0.992946 -0.0780656 -0.979883 0.183674 0.153681 -0.987539 -0.0338809 0.142567 -0.976261 0.163065 -0.753422 -0.128755 0.644808 0.0251975 0.994475 0.1019 -0.021629 0.555061 -0.831529 -0.055707 0.586288 -0.808185 0.0963452 -0.260193 -0.960738 -0.13665 -0.530545 -0.83657 0.267371 0.945639 0.185147 -0.38721 0.326389 0.862287 0.317463 -0.331093 0.888591 -0.201158 -0.966445 -0.159751 0.0859593 -0.996025 0.0233599 -0.163792 -0.326503 -0.930896 0.266444 0.170361 -0.948675 -0.220059 0.872945 -0.435364 0.286673 0.112488 0.951402 -0.348405 -0.582943 0.734024 0.118189 -0.92734 0.355066 0.0927183 -0.637189 -0.76511 0.385294 0.845874 -0.368843 -0.267647 0.916349 0.297773 -0.200001 0.973406 0.111715 0.0211759 0.925858 0.377278 0.0121736 0.258638 0.965898 -0.111526 0.139536 0.983916 0.132284 -0.988688 0.0706922 0.226199 -0.965457 0.129333 -0.295177 -0.104016 -0.949764 0.359086 0.39764 -0.844357 0.0603409 -0.534812 0.842814 -0.513933 -0.178396 0.839076 0.452376 -0.847595 -0.277378 -0.323381 -0.222186 -0.919814 -0.0788412 0.989177 0.12375 0.00809962 0.0103994 -0.999913 0.390544 0.913923 -0.110544 -0.0173494 0.999837 0.00496968 0.0859786 0.803256 0.589396 -0.12856 0.622631 0.771883 0.0116425 -0.00306807 0.999928 -0.0514777 -0.0381107 0.997947 0.274748 -0.957823 0.0841942 -0.00300044 -0.999734 0.0228608 0.128398 -0.767356 -0.628235 -0.0851177 -0.593349 -0.800432 -0.0118839 0.999928 0.00180297 0.0875548 0.995873 0.0239107 0.382798 0.727836 -0.568964 -0.0140389 -0.0155785 -0.99978 -0.0835745 0.0136653 -0.996408 0.3337 -0.9405 -0.0640711 -0.100271 -0.994778 0.0190581 0.0261847 0.00825952 0.999623 -0.0247251 -0.00886424 0.999655 0.11637 -0.595986 0.794518 -0.119052 -0.699326 0.704819 0.00297933 0.986902 0.161295 -0.130289 0.96236 0.23851 0.130547 -0.307743 -0.942471 -0.0068304 -0.23391 -0.972234 -0.376757 -0.213147 0.901456 0.00637104 0.898974 -0.437955 -0.174797 0.932401 -0.316344 -0.397489 -0.6447 -0.652966 0.0597409 -0.311177 -0.948472 -0.264013 -0.228884 0.936968 0.041725 0.335847 0.940992 -0.190258 0.773526 0.604532 -0.329344 0.386002 -0.861705 0.216485 -0.283053 -0.934353 -0.246548 -0.911342 -0.329653 0.295181 -0.946975 0.12691 0.0626087 -0.98531 0.158886 -0.29634 -0.848495 0.43845 0.164539 -0.247582 0.954793 0.0889843 0.401575 0.911493 -0.450004 0.804544 0.387563 0.30622 0.559279 -0.770348 -0.193222 -0.225589 -0.954869 -0.265424 -0.109506 -0.957893 -0.695264 -0.207164 0.688253 -0.877383 0.397827 0.268203 -0.0945965 -0.328387 -0.939794 0.178613 -0.036808 -0.983231 0.922018 0.167392 0.349088 0.912767 0.10438 0.394919 -0.576047 -0.40809 0.70826 0.683535 0.315403 0.658257 0.952724 -0.153242 0.262363 0.362512 0.164605 -0.917328 -0.152498 -0.346254 -0.925663 -0.90925 0.41058 0.0684743 -0.203857 0.167848 0.964505 0.480066 -0.556988 0.677718 0.984625 0.132692 0.11361 -0.505602 -0.123023 -0.853951 -0.559594 -0.25054 -0.78999 -0.776654 0.307408 0.549826 -0.389921 -0.278655 0.877675 0.939447 0.165827 0.2999 0.940122 0.23667 0.245269 -0.34832 -0.212544 -0.912961 -0.294482 -0.281698 -0.913196 -0.774809 -0.332253 0.537847 -0.70673 -0.174578 0.685606 0.775045 0.03157 0.631117 0.860265 -0.157114 0.485036 0.101619 0.0259937 -0.994484 -0.137134 0.353983 -0.925143 -0.974201 0.0820819 0.210226 0.553937 -0.116142 0.824418 0.759848 0.61772 0.202615 0.264753 -0.428041 -0.864111 -0.802498 0.556962 -0.213987 -0.614073 0.281955 0.737168 -0.5764 0.197139 0.793031 0.856519 -0.204906 0.473697 0.972655 0.080502 0.217855 0.0715415 0.0981066 -0.992601 -0.186804 -0.285501 -0.939996 -0.675122 -0.274964 0.684547 -0.0204649 0.416 0.909134 0.895842 -0.368329 0.248597 0.508984 0.438819 -0.740522 -0.138128 -0.264538 -0.954432 -0.957257 0.208131 -0.200851 -0.619512 -0.167462 0.766917 -0.754883 0.0700687 0.652105 -0.325788 -0.00237639 -0.94544 -0.262108 -0.0899465 -0.960838 0.983221 0.0586811 0.17272 0.963161 0.138627 0.230441 -0.444929 -0.284826 0.849066 0.141449 0.322928 0.935794 0.90499 -0.39235 0.164481 0.668008 0.320778 -0.671466 -0.418597 -0.316607 -0.851197 -0.83403 0.234091 -0.499596</float_array>
                    <technique_common>
                        <accessor count="991" source="#shape0-lib-normals-array" stride="3">
                            <param name="X" type="float"/>
                            <param name="Y" type="float"/>
                            <param name="Z" type="float"/>
                        </accessor>
                    </technique_common>
                </source>
                <vertices id="shape0-lib-vertices">
                    <input semantic="POSITION" source="#shape0-lib-positions"/>
                </vertices>
                <triangles count="991">
                    <input offset="0" semantic="VERTEX" source="#shape0-lib-vertices"/>
                    <input offset="1" semantic="NORMAL" source="#shape0-lib-normals"/>
                    <p>94 0 62 0 260 0 43 1 3 1 41 1 95 2 3 2 43 2 4 3 321 3 95 3 2 4 1 4 46 4 5 5 6 5 64 5 64 6 6 6 1 6 64 7 1 7 2 7 46 8 5 8 74 8 7 9 87 9 2 9 2 10 8 10 7 10 28 11 9 11 2 11 2 12 9 12 8 12 87 13 7 13 49 13 49 14 7 14 9 14 10 15 12 15 78 15 87 16 13 16 14 16 15 17 13 17 87 17 122 18 16 18 15 18 17 19 18 19 19 19 335 20 18 20 62 20 62 21 18 21 17 21 94 22 20 22 62 22 59 23 24 23 89 23 24 24 59 24 23 24 88 25 26 25 368 25 25 26 86 26 368 26 88 27 25 27 26 27 25 28 88 28 86 28 2 29 29 29 27 29 2 30 27 30 28 30 28 31 341 31 70 31 70 32 341 32 29 32 70 33 29 33 2 33 28 34 30 34 341 34 32 35 31 35 17 35 74 36 32 36 47 36 35 37 33 37 23 37 34 38 35 38 92 38 3 39 36 39 41 39 87 40 37 40 0 40 87 41 49 41 39 41 76 42 40 42 49 42 39 43 40 43 76 43 83 44 43 44 42 44 44 45 71 45 2 45 44 46 45 46 71 46 2 47 46 47 44 47 74 48 355 48 46 48 47 49 355 49 74 49 71 50 45 50 47 50 9 51 28 51 48 51 53 52 50 52 48 52 9 53 50 53 49 53 51 54 10 54 78 54 71 55 54 55 53 55 54 56 83 56 55 56 83 57 54 57 71 57 56 58 57 58 83 58 83 59 57 59 55 59 53 60 58 60 405 60 53 61 405 61 51 61 61 62 65 62 64 62 64 63 60 63 61 63 63 64 60 64 64 64 64 65 217 65 62 65 64 66 62 66 63 66 65 67 63 67 62 67 87 68 67 68 2 68 68 69 66 69 122 69 2 70 67 70 68 70 68 71 122 71 69 71 68 72 69 72 2 72 70 73 398 73 71 73 2 74 71 74 70 74 71 75 409 75 72 75 2 76 72 76 73 76 2 77 73 77 71 77 2 78 71 78 72 78 122 79 66 79 87 79 71 80 53 80 70 80 70 81 53 81 28 81 28 82 53 82 48 82 14 83 16 83 122 83 14 84 122 84 87 84 47 85 83 85 71 85 5 86 64 86 74 86 74 87 62 87 17 87 74 88 64 88 65 88 74 89 65 89 62 89 217 90 260 90 62 90 75 91 77 91 37 91 39 92 76 92 75 92 39 93 75 93 87 93 87 94 75 94 37 94 37 95 77 95 76 95 76 96 49 96 78 96 76 97 78 97 37 97 37 98 78 98 38 98 83 99 47 99 32 99 83 100 32 100 80 100 85 101 82 101 81 101 17 102 81 102 32 102 32 103 81 103 79 103 32 104 79 104 80 104 80 105 82 105 85 105 49 106 50 106 78 106 50 107 53 107 78 107 78 108 53 108 51 108 83 109 80 109 408 109 83 110 408 110 84 110 83 111 84 111 85 111 85 112 408 112 80 112 43 113 83 113 95 113 122 114 15 114 87 114 122 115 87 115 86 115 86 116 87 116 368 116 88 117 78 117 12 117 52 118 405 118 56 118 52 119 56 119 93 119 83 120 41 120 34 120 94 121 260 121 89 121 22 122 89 122 367 122 87 123 0 123 78 123 87 124 78 124 88 124 87 125 88 125 368 125 10 126 52 126 90 126 51 127 405 127 52 127 56 128 83 128 34 128 56 129 34 129 93 129 91 130 52 130 90 130 90 131 52 131 93 131 81 132 17 132 19 132 81 133 19 133 85 133 85 134 19 134 83 134 83 135 19 135 95 135 95 136 19 136 94 136 19 137 21 137 94 137 94 138 89 138 95 138 95 139 89 139 22 139 95 140 22 140 4 140 4 141 22 141 24 141 89 142 260 142 59 142 35 143 23 143 92 143 92 144 23 144 93 144 93 145 23 145 90 145 90 146 23 146 10 146 10 147 23 147 88 147 10 148 88 148 11 148 11 149 88 149 12 149 24 150 23 150 4 150 4 151 23 151 3 151 3 152 23 152 36 152 36 153 23 153 33 153 96 154 97 154 88 154 88 155 97 155 98 155 88 156 23 156 99 156 88 157 99 157 96 157 99 158 310 158 96 158 98 159 313 159 88 159 88 160 313 160 100 160 101 161 314 161 88 161 102 162 103 162 88 162 88 163 103 163 104 163 104 164 105 164 88 164 88 165 105 165 101 165 100 166 106 166 88 166 88 167 106 167 102 167 88 168 314 168 370 168 370 169 86 169 88 169 86 170 370 170 107 170 86 171 107 171 108 171 108 172 109 172 86 172 109 173 110 173 86 173 86 174 110 174 111 174 111 175 110 175 112 175 118 176 111 176 112 176 142 177 115 177 116 177 142 178 116 178 118 178 118 179 116 179 117 179 118 180 117 180 111 180 136 181 119 181 132 181 119 182 120 182 132 182 123 183 154 183 119 183 124 184 113 184 123 184 123 185 113 185 122 185 125 186 124 186 121 186 124 187 125 187 113 187 119 188 136 188 123 188 123 189 136 189 121 189 125 190 121 190 136 190 127 191 149 191 130 191 147 192 135 192 130 192 131 193 135 193 147 193 132 194 131 194 144 194 132 195 134 195 131 195 130 196 135 196 133 196 125 197 136 197 170 197 132 198 138 198 136 198 140 199 137 199 132 199 132 200 137 200 138 200 139 201 141 201 115 201 115 202 141 202 140 202 142 203 139 203 115 203 139 204 142 204 166 204 123 205 122 205 154 205 122 206 188 206 128 206 128 207 188 207 187 207 120 208 122 208 128 208 120 209 128 209 134 209 134 210 128 210 133 210 128 211 129 211 130 211 154 212 122 212 120 212 120 213 134 213 132 213 128 214 122 214 126 214 128 215 126 215 129 215 140 216 143 216 144 216 132 217 143 217 140 217 140 218 141 218 137 218 140 219 145 219 115 219 145 220 146 220 115 220 144 221 131 221 146 221 144 222 146 222 140 222 126 223 122 223 86 223 133 224 128 224 130 224 147 225 130 225 149 225 117 226 115 226 146 226 117 227 146 227 111 227 111 228 146 228 131 228 111 229 131 229 148 229 148 230 131 230 147 230 149 231 127 231 126 231 126 232 86 232 149 232 111 233 148 233 149 233 111 234 149 234 86 234 153 235 150 235 135 235 135 236 150 236 133 236 133 237 150 237 151 237 133 238 151 238 134 238 152 239 134 239 151 239 134 240 152 240 131 240 131 241 152 241 153 241 153 242 135 242 131 242 179 243 112 243 182 243 156 244 155 244 157 244 156 245 157 245 169 245 169 246 157 246 175 246 157 247 155 247 175 247 186 248 185 248 110 248 159 249 151 249 150 249 152 250 151 250 159 250 183 251 153 251 152 251 183 252 152 252 156 252 163 253 150 253 186 253 161 254 160 254 163 254 161 255 110 255 162 255 159 256 164 256 162 256 163 257 164 257 159 257 181 258 168 258 165 258 181 259 165 259 166 259 156 260 169 260 167 260 183 261 168 261 181 261 156 262 167 262 168 262 156 263 168 263 183 263 171 264 170 264 169 264 171 265 169 265 175 265 173 266 174 266 171 266 171 267 174 267 172 267 174 268 175 268 114 268 114 269 175 269 158 269 174 270 114 270 172 270 175 271 173 271 171 271 112 272 178 272 118 272 176 273 178 273 179 273 178 274 176 274 177 274 178 275 177 275 166 275 166 276 177 276 179 276 166 277 179 277 181 277 112 278 179 278 178 278 150 279 153 279 112 279 150 280 112 280 186 280 186 281 112 281 110 281 163 282 186 282 161 282 161 283 186 283 110 283 183 284 181 284 182 284 182 285 180 285 181 285 182 286 181 286 179 286 112 287 153 287 182 287 182 288 153 288 183 288 156 289 184 289 183 289 156 290 152 290 155 290 163 291 159 291 150 291 152 292 159 292 158 292 152 293 158 293 155 293 155 294 158 294 175 294 162 295 158 295 159 295 110 296 158 296 162 296 127 297 163 297 126 297 161 298 126 298 160 298 160 299 126 299 163 299 126 300 161 300 162 300 126 301 162 301 129 301 162 302 164 302 129 302 129 303 164 303 130 303 130 304 164 304 163 304 163 305 127 305 130 305 185 306 148 306 186 306 186 307 148 307 147 307 186 308 147 308 149 308 186 309 149 309 185 309 185 310 149 310 148 310 187 311 159 311 188 311 118 312 178 312 166 312 118 313 166 313 142 313 166 314 165 314 139 314 169 315 136 315 167 315 167 316 136 316 138 316 167 317 138 317 168 317 168 318 138 318 137 318 168 319 137 319 141 319 168 320 141 320 165 320 165 321 141 321 139 321 136 322 169 322 170 322 171 323 125 323 170 323 125 324 171 324 172 324 125 325 172 325 113 325 113 326 172 326 114 326 158 327 122 327 114 327 114 328 122 328 113 328 122 329 158 329 189 329 122 330 189 330 190 330 122 331 190 331 191 331 191 332 192 332 122 332 122 333 192 333 193 333 122 334 193 334 69 334 69 335 193 335 2 335 2 336 193 336 393 336 2 337 393 337 194 337 194 338 195 338 2 338 2 339 195 339 196 339 196 340 197 340 2 340 2 341 197 341 198 341 198 342 199 342 2 342 2 343 199 343 200 343 401 344 201 344 200 344 200 345 201 345 2 345 64 346 202 346 204 346 2 347 201 347 64 347 202 348 64 348 203 348 203 349 64 349 201 349 203 350 201 350 205 350 204 351 402 351 64 351 64 352 402 352 206 352 207 353 212 353 64 353 64 354 208 354 209 354 209 355 210 355 64 355 64 356 210 356 207 356 206 357 211 357 64 357 64 358 211 358 208 358 213 359 217 359 212 359 212 360 217 360 64 360 217 361 213 361 214 361 217 362 214 362 215 362 215 363 216 363 217 363 217 364 216 364 218 364 217 365 218 365 219 365 219 366 218 366 220 366 222 367 225 367 223 367 225 368 259 368 221 368 225 369 221 369 224 369 229 370 227 370 228 370 231 371 229 371 219 371 219 372 229 372 217 372 245 373 231 373 219 373 229 374 230 374 227 374 234 375 232 375 260 375 232 376 235 376 258 376 258 377 233 377 234 377 258 378 235 378 233 378 237 379 257 379 258 379 257 380 237 380 236 380 258 381 238 381 237 381 250 382 236 382 239 382 224 383 242 383 240 383 224 384 240 384 222 384 224 385 222 385 223 385 226 386 227 386 241 386 227 387 243 387 241 387 243 388 227 388 230 388 230 389 244 389 243 389 231 390 244 390 230 390 231 391 245 391 244 391 217 392 246 392 248 392 217 393 248 393 249 393 217 394 229 394 228 394 217 395 249 395 260 395 260 396 249 396 234 396 246 397 217 397 238 397 238 398 217 398 239 398 254 399 251 399 252 399 241 400 242 400 226 400 226 401 242 401 254 401 226 402 254 402 252 402 217 403 228 403 239 403 239 404 228 404 226 404 239 405 226 405 250 405 250 406 226 406 252 406 250 407 251 407 254 407 250 408 254 408 236 408 242 409 253 409 254 409 255 410 253 410 224 410 224 411 253 411 242 411 254 412 255 412 224 412 260 413 232 413 258 413 257 414 256 414 258 414 238 415 258 415 234 415 238 416 234 416 246 416 246 417 234 417 249 417 246 418 249 418 247 418 224 419 221 419 254 419 254 420 221 420 260 420 254 421 260 421 236 421 236 422 260 422 257 422 225 423 222 423 259 423 257 424 260 424 258 424 237 425 262 425 236 425 236 426 262 426 264 426 236 427 264 427 261 427 236 428 261 428 239 428 261 429 274 429 239 429 239 430 274 430 238 430 238 431 274 431 237 431 237 432 274 432 262 432 263 433 267 433 266 433 263 434 266 434 265 434 263 435 287 435 267 435 287 436 265 436 267 436 285 437 270 437 268 437 285 438 268 438 295 438 269 439 270 439 272 439 272 440 270 440 285 440 218 441 272 441 220 441 220 442 272 442 273 442 273 443 280 443 220 443 280 444 273 444 271 444 285 445 271 445 272 445 295 446 261 446 264 446 262 447 277 447 288 447 288 448 277 448 275 448 277 449 262 449 278 449 218 450 279 450 278 450 276 451 275 451 218 451 218 452 275 452 279 452 265 453 287 453 291 453 271 454 281 454 280 454 285 455 282 455 271 455 271 456 282 456 281 456 284 457 285 457 295 457 293 458 283 458 284 458 283 459 263 459 265 459 265 460 286 460 283 460 287 461 290 461 276 461 276 462 290 462 289 462 275 463 276 463 288 463 288 464 276 464 289 464 262 465 288 465 264 465 264 466 288 466 290 466 264 467 290 467 287 467 265 468 291 468 286 468 283 469 293 469 263 469 263 470 292 470 293 470 284 471 295 471 293 471 287 472 263 472 264 472 264 473 263 473 293 473 264 474 293 474 295 474 295 475 268 475 261 475 268 476 269 476 261 476 261 477 269 477 218 477 261 478 218 478 274 478 274 479 218 479 297 479 218 480 278 480 297 480 218 481 297 481 296 481 262 482 274 482 278 482 278 483 274 483 297 483 272 484 218 484 269 484 275 485 277 485 232 485 232 486 277 486 235 486 235 487 277 487 278 487 235 488 278 488 233 488 233 489 278 489 234 489 234 490 278 490 279 490 234 491 279 491 275 491 234 492 275 492 232 492 257 493 289 493 290 493 257 494 290 494 256 494 256 495 290 495 288 495 256 496 288 496 258 496 258 497 288 497 289 497 258 498 289 498 257 498 246 499 296 499 248 499 248 500 296 500 249 500 249 501 296 501 297 501 249 502 297 502 247 502 247 503 297 503 246 503 246 504 297 504 296 504 222 505 286 505 259 505 259 506 286 506 291 506 259 507 291 507 221 507 221 508 291 508 287 508 222 509 283 509 286 509 240 510 283 510 222 510 243 511 282 511 241 511 241 512 282 512 285 512 241 513 285 513 242 513 242 514 285 514 284 514 242 515 284 515 283 515 242 516 283 516 240 516 281 517 282 517 243 517 244 518 281 518 243 518 245 519 280 519 244 519 244 520 280 520 281 520 219 521 220 521 245 521 245 522 220 522 280 522 276 523 260 523 287 523 287 524 260 524 221 524 260 525 276 525 298 525 260 526 298 526 299 526 260 527 299 527 300 527 260 528 300 528 301 528 260 529 301 529 59 529 59 530 301 530 302 530 59 531 302 531 23 531 23 532 302 532 303 532 303 533 304 533 23 533 23 534 304 534 305 534 305 535 306 535 23 535 23 536 306 536 307 536 307 537 308 537 23 537 23 538 308 538 309 538 310 539 99 539 309 539 309 540 99 540 23 540 96 541 310 541 311 541 311 542 312 542 96 542 96 543 312 543 97 543 97 544 312 544 313 544 97 545 313 545 98 545 311 546 310 546 309 546 311 547 309 547 312 547 312 548 309 548 100 548 312 549 100 549 313 549 303 550 302 550 314 550 314 551 101 551 303 551 303 552 101 552 105 552 303 553 105 553 304 553 304 554 105 554 305 554 305 555 105 555 104 555 305 556 104 556 103 556 305 557 103 557 306 557 306 558 103 558 102 558 306 559 102 559 307 559 307 560 102 560 106 560 307 561 106 561 308 561 308 562 106 562 100 562 308 563 100 563 309 563 353 564 42 564 349 564 42 565 315 565 349 565 318 566 316 566 317 566 314 567 320 567 319 567 314 568 319 568 318 568 322 569 321 569 320 569 322 570 320 570 314 570 44 571 355 571 323 571 44 572 323 572 393 572 392 573 391 573 355 573 393 574 323 574 324 574 324 575 6 575 391 575 325 576 326 576 393 576 326 577 357 577 393 577 314 578 328 578 372 578 314 579 327 579 328 579 329 580 327 580 314 580 389 581 330 581 412 581 332 582 331 582 389 582 333 583 332 583 372 583 412 584 330 584 333 584 315 585 336 585 334 585 334 586 336 586 335 586 337 587 301 587 334 587 337 588 338 588 301 588 301 589 338 589 84 589 392 590 334 590 301 590 340 591 341 591 48 591 393 592 339 592 340 592 393 593 342 593 339 593 48 594 30 594 357 594 357 595 30 595 342 595 357 596 342 596 393 596 355 597 343 597 392 597 315 598 344 598 345 598 314 599 346 599 347 599 314 600 347 600 317 600 314 601 348 601 346 601 333 602 350 602 385 602 385 603 360 603 386 603 386 604 360 604 349 604 389 605 412 605 413 605 411 606 412 606 384 606 356 607 411 607 349 607 413 608 411 608 356 608 390 609 413 609 356 609 351 610 44 610 393 610 361 611 410 611 393 611 410 612 351 612 393 612 45 613 410 613 361 613 354 614 322 614 84 614 338 615 315 615 84 615 42 616 84 616 315 616 314 617 352 617 329 617 329 618 352 618 358 618 381 619 352 619 314 619 91 620 352 620 381 620 91 621 349 621 358 621 317 622 353 622 349 622 353 623 317 623 316 623 316 624 322 624 354 624 84 625 42 625 354 625 361 626 343 626 45 626 45 627 44 627 410 627 349 628 359 628 358 628 349 629 360 629 359 629 349 630 363 630 362 630 349 631 362 631 356 631 349 632 403 632 404 632 403 633 349 633 406 633 302 634 301 634 364 634 302 635 364 635 365 635 302 636 365 636 366 636 371 637 314 637 372 637 371 638 372 638 368 638 314 639 371 639 369 639 369 640 372 640 370 640 369 641 370 641 314 641 393 642 376 642 373 642 374 643 375 643 193 643 193 644 375 644 376 644 376 645 393 645 193 645 393 646 377 646 212 646 212 647 377 647 379 647 213 648 212 648 379 648 382 649 381 649 314 649 317 650 383 650 382 650 317 651 382 651 314 651 314 652 318 652 317 652 314 653 317 653 348 653 381 654 383 654 317 654 381 655 317 655 349 655 0 656 350 656 360 656 360 657 350 657 328 657 360 658 328 658 329 658 350 659 333 659 372 659 350 660 372 660 328 660 322 661 314 661 302 661 301 662 84 662 322 662 301 663 322 663 366 663 366 664 322 664 302 664 349 665 91 665 381 665 384 666 412 666 333 666 384 667 333 667 385 667 411 668 384 668 386 668 349 669 411 669 386 669 345 670 388 670 315 670 361 671 406 671 349 671 345 672 349 672 315 672 315 673 387 673 388 673 370 674 372 674 193 674 193 675 372 675 332 675 345 676 343 676 349 676 349 677 343 677 361 677 332 678 389 678 193 678 361 679 48 679 356 679 334 680 392 680 315 680 315 681 392 681 344 681 413 682 390 682 389 682 389 683 390 683 374 683 389 684 374 684 193 684 48 685 361 685 397 685 392 686 378 686 391 686 380 687 378 687 379 687 379 688 378 688 392 688 301 689 366 689 364 689 364 690 366 690 367 690 213 691 379 691 392 691 213 692 392 692 301 692 7 693 325 693 390 693 390 694 325 694 393 694 390 695 393 695 374 695 374 696 393 696 373 696 394 697 393 697 396 697 393 698 395 698 396 698 393 699 340 699 48 699 393 700 48 700 397 700 393 701 397 701 395 701 395 702 397 702 398 702 361 703 394 703 397 703 356 704 362 704 361 704 393 705 394 705 361 705 378 706 377 706 393 706 378 707 393 707 391 707 391 708 393 708 324 708 107 709 370 709 193 709 193 710 192 710 107 710 107 711 192 711 191 711 107 712 191 712 108 712 108 713 191 713 190 713 108 714 190 714 109 714 109 715 190 715 189 715 109 716 189 716 110 716 110 717 189 717 158 717 207 718 393 718 212 718 393 719 207 719 194 719 194 720 207 720 210 720 194 721 210 721 195 721 195 722 210 722 196 722 196 723 210 723 209 723 196 724 209 724 197 724 197 725 209 725 208 725 197 726 208 726 198 726 198 727 208 727 211 727 198 728 211 728 199 728 199 729 211 729 206 729 199 730 206 730 200 730 399 731 200 731 400 731 400 732 200 732 206 732 399 733 401 733 200 733 206 734 402 734 400 734 400 735 402 735 204 735 201 736 401 736 205 736 205 737 401 737 399 737 205 738 399 738 203 738 399 739 400 739 203 739 203 740 400 740 202 740 202 741 400 741 204 741 213 742 301 742 300 742 213 743 300 743 214 743 214 744 300 744 299 744 214 745 299 745 215 745 215 746 299 746 298 746 215 747 298 747 216 747 216 748 298 748 276 748 216 749 276 749 218 749 349 750 404 750 405 750 349 751 405 751 363 751 53 752 362 752 58 752 58 753 362 753 363 753 53 754 361 754 362 754 54 755 361 755 53 755 54 756 406 756 361 756 55 757 406 757 54 757 57 758 403 758 55 758 55 759 403 759 406 759 56 760 403 760 57 760 56 761 404 761 403 761 405 762 404 762 56 762 58 763 363 763 405 763 93 764 381 764 92 764 92 765 381 765 382 765 92 766 382 766 34 766 34 767 382 767 383 767 34 768 383 768 93 768 93 769 383 769 381 769 51 770 359 770 360 770 51 771 360 771 10 771 10 772 360 772 329 772 10 773 329 773 52 773 52 774 329 774 358 774 52 775 358 775 359 775 52 776 359 776 51 776 75 777 384 777 385 777 75 778 385 778 77 778 77 779 385 779 386 779 77 780 386 780 76 780 76 781 386 781 384 781 76 782 384 782 75 782 50 783 390 783 356 783 50 784 356 784 48 784 48 785 357 785 9 785 9 786 357 786 390 786 390 787 50 787 9 787 398 788 397 788 71 788 71 789 397 789 394 789 71 790 394 790 70 790 70 791 394 791 396 791 70 792 396 792 395 792 70 793 395 793 398 793 47 794 45 794 343 794 47 795 343 795 355 795 46 796 355 796 44 796 80 797 388 797 387 797 80 798 387 798 82 798 82 799 387 799 81 799 81 800 387 800 388 800 81 801 388 801 79 801 79 802 388 802 80 802 83 803 353 803 41 803 41 804 353 804 316 804 41 805 316 805 43 805 43 806 316 806 354 806 43 807 354 807 42 807 42 808 353 808 83 808 407 809 352 809 91 809 358 810 352 810 407 810 358 811 52 811 91 811 407 812 91 812 90 812 407 813 90 813 52 813 407 814 52 814 358 814 408 815 84 815 42 815 408 816 85 816 84 816 409 817 410 817 44 817 409 818 44 818 351 818 351 819 72 819 409 819 410 820 409 820 71 820 410 821 71 821 73 821 410 822 73 822 351 822 351 823 73 823 72 823 413 824 49 824 40 824 413 825 40 825 411 825 411 826 40 826 412 826 412 827 40 827 39 827 412 828 39 828 413 828 413 829 39 829 49 829 360 830 78 830 0 830 360 831 37 831 38 831 360 832 38 832 78 832 385 833 37 833 360 833 350 834 0 834 385 834 385 835 0 835 37 835 36 836 346 836 348 836 346 837 35 837 347 837 347 838 35 838 317 838 317 839 35 839 34 839 317 840 34 840 41 840 317 841 41 841 348 841 348 842 41 842 36 842 346 843 36 843 33 843 346 844 33 844 35 844 17 845 344 845 392 845 17 846 392 846 74 846 74 847 392 847 343 847 74 848 343 848 32 848 344 849 17 849 345 849 345 850 17 850 31 850 345 851 31 851 32 851 345 852 32 852 343 852 28 853 342 853 30 853 341 854 30 854 48 854 29 855 341 855 340 855 29 856 340 856 27 856 27 857 340 857 339 857 27 858 339 858 342 858 27 859 342 859 28 859 379 860 63 860 380 860 380 861 63 861 65 861 380 862 65 862 378 862 378 863 65 863 377 863 377 864 65 864 61 864 377 865 61 865 60 865 377 866 60 866 379 866 379 867 60 867 63 867 364 868 24 868 365 868 365 869 24 869 22 869 365 870 22 870 366 870 366 871 22 871 367 871 367 872 89 872 364 872 364 873 89 873 24 873 373 874 67 874 87 874 373 875 87 875 374 875 374 876 87 876 375 876 375 877 87 877 66 877 375 878 66 878 376 878 376 879 66 879 68 879 376 880 68 880 67 880 376 881 67 881 373 881 371 882 26 882 25 882 371 883 25 883 369 883 369 884 25 884 372 884 372 885 25 885 368 885 371 886 368 886 26 886 336 887 18 887 335 887 334 888 335 888 62 888 334 889 62 889 20 889 334 890 20 890 337 890 337 891 20 891 94 891 337 892 94 892 338 892 338 893 94 893 21 893 338 894 21 894 315 894 315 895 21 895 19 895 315 896 19 896 336 896 336 897 19 897 18 897 330 898 14 898 13 898 330 899 13 899 333 899 389 900 14 900 330 900 331 901 16 901 389 901 389 902 16 902 14 902 332 903 16 903 331 903 332 904 15 904 16 904 333 905 13 905 332 905 332 906 13 906 15 906 327 907 11 907 328 907 328 908 11 908 12 908 329 909 10 909 327 909 327 910 10 910 11 910 328 911 12 911 329 911 329 912 12 912 10 912 390 913 9 913 7 913 326 914 8 914 357 914 357 915 8 915 9 915 325 916 7 916 8 916 325 917 8 917 326 917 46 918 355 918 5 918 5 919 355 919 391 919 5 920 391 920 6 920 6 921 324 921 1 921 1 922 324 922 323 922 1 923 323 923 46 923 46 924 323 924 355 924 3 925 316 925 318 925 3 926 318 926 4 926 4 927 318 927 319 927 4 928 319 928 320 928 4 929 320 929 321 929 95 930 321 930 322 930 95 931 322 931 3 931 3 932 322 932 316 932 173 933 121 933 174 933 174 934 121 934 124 934 174 935 124 935 175 935 175 936 124 936 123 936 175 937 123 937 121 937 175 938 121 938 173 938 271 939 231 939 230 939 271 940 230 940 272 940 272 941 230 941 229 941 272 942 229 942 273 942 273 943 229 943 231 943 273 944 231 944 271 944 119 945 157 945 120 945 120 946 157 946 155 946 120 947 155 947 154 947 154 948 155 948 119 948 119 949 155 949 157 949 270 950 227 950 268 950 268 951 227 951 226 951 268 952 226 952 228 952 268 953 228 953 269 953 269 954 228 954 227 954 269 955 227 955 270 955 143 956 156 956 183 956 143 957 183 957 144 957 144 958 183 958 132 958 132 959 183 959 184 959 132 960 184 960 156 960 132 961 156 961 143 961 295 962 252 962 251 962 295 963 251 963 250 963 295 964 250 964 294 964 294 965 250 965 252 965 294 966 252 966 295 966 145 967 181 967 146 967 146 968 181 968 180 968 146 969 180 969 182 969 146 970 182 970 140 970 140 971 182 971 145 971 145 972 182 972 181 972 263 973 253 973 255 973 263 974 255 974 292 974 292 975 255 975 254 975 292 976 254 976 293 976 293 977 254 977 253 977 293 978 253 978 263 978 176 979 117 979 177 979 177 980 117 980 116 980 177 981 116 981 115 981 177 982 115 982 179 982 179 983 115 983 176 983 176 984 115 984 117 984 265 985 225 985 224 985 265 986 224 986 267 986 267 987 224 987 223 987 267 988 223 988 266 988 266 989 223 989 225 989 266 990 225 990 265 990</p>
                </triangles>
            </mesh>
        </geometry>
    </library_geometries>
    <library_visual_scenes>
        <visual_scene id="VisualSceneNode" name="VisualScene">
            <node id="node" name="node">
                <instance_geometry url="#shape0-lib">
                    <bind_material>
                        <technique_common/>
                    </bind_material>
                </instance_geometry>
            </node>
        </visual_scene>
    </library_visual_scenes>
    <scene>
        <instance_visual_scene url="#VisualSceneNode"/>
    </scene>
</COLLADA>
